# MagicaVoxel @ Ephtracy

# group
o 

# material
mtllib TankCanon.mtl
usemtl palette

# normals
vn -1 0 0
vn 1 0 0
vn 0 0 1
vn 0 0 -1
vn 0 -1 0
vn 0 1 0

# texcoords
vt 0.0917969 0.5
vt 0.962891 0.5
vt 0.978516 0.5
vt 0.986328 0.5

# verts
v -2 0.1 2.8
v -2 0.1 1.2
v -2 0.4 2.8
v -2 0.4 1.2
v -1.9 0 2.8
v -1.9 0 1.2
v -1.9 0.1 2.9
v -1.9 0.1 2.8
v -1.9 0.1 1.2
v -1.9 0.1 1.1
v -1.9 0.4 2.9
v -1.9 0.4 2.8
v -1.9 0.4 1.2
v -1.9 0.4 1.1
v -1.9 0.5 2.8
v -1.9 0.5 1.2
v -1.8 0 2.9
v -1.8 0 2.8
v -1.8 0 1.2
v -1.8 0 1.1
v -1.8 0.1 3
v -1.8 0.1 2.9
v -1.8 0.1 2.8
v -1.8 0.1 1.2
v -1.8 0.1 1.1
v -1.8 0.4 3
v -1.8 0.4 2.9
v -1.8 0.4 2.8
v -1.8 0.4 1.2
v -1.8 0.4 1.1
v -1.8 0.5 2.9
v -1.8 0.5 2.8
v -1.8 0.5 1.2
v -1.8 0.5 1.1
v -1.6 0 1.1
v -1.6 0 1
v -1.6 0.5 1.8
v -1.6 0.5 1.1
v -1.6 0.6 1.8
v -1.6 0.6 1
v -1.5 0.1 -1
v -1.5 0.1 -1.1
v -1.5 0.2 1
v -1.5 0.2 -1
v -1.5 0.3 1
v -1.5 0.3 -1
v -1.5 0.4 -1
v -1.5 0.4 -1.1
v -1.4 0.1 1
v -1.4 0.1 -1
v -1.4 0.2 1
v -1.4 0.2 -1
v -1.4 0.3 1
v -1.4 0.3 -1
v -1.4 0.4 1
v -1.4 0.4 -1
v -1.4 0.5 2.8
v -1.4 0.5 2
v -1.4 0.6 2.8
v -1.4 0.6 2
v -1.3 0.2 -0.5
v -1.3 0.2 -1
v -1.3 0.2 -1.1
v -1.3 0.3 -0.5
v -1.3 0.3 -1
v -1.3 0.3 -1.1
v -1.3 0.6 2.7
v -1.3 0.6 2.1
v -1.3 0.7 2.7
v -1.3 0.7 2.1
v -0.7 0 1.1
v -0.7 0 1
v -0.7 0.5 1.8
v -0.7 0.5 1.1
v -0.7 0.6 1.8
v -0.7 0.6 1
v -0.6 0.1 0.3
v -0.6 0.1 0.2
v -0.6 0.2 1
v -0.6 0.2 0.3
v -0.6 0.4 1
v -0.6 0.4 0.3
v -0.6 0.5 0.3
v -0.6 0.5 0.2
v -0.5 0.1 1
v -0.5 0.1 0.3
v -0.5 0.2 1
v -0.5 0.2 0.3
v -0.5 0.4 1
v -0.5 0.4 0.3
v -0.5 0.5 1
v -0.5 0.5 0.3
v -0.3 0.2 1.1
v -0.3 0.2 0.3
v -0.3 0.2 0.2
v -0.3 0.4 1.1
v -0.3 0.4 0.3
v -0.3 0.4 0.2
v -1.4 0.2 -0.5
v -1.4 0.2 -1
v -1.4 0.2 -1.1
v -1.4 0.3 -0.5
v -1.4 0.3 -1
v -1.4 0.3 -1.1
v -1.3 0.1 1
v -1.3 0.1 -1
v -1.3 0.2 1
v -1.3 0.2 -1
v -1.3 0.3 1
v -1.3 0.3 -1
v -1.3 0.4 1
v -1.3 0.4 -1
v -1.2 0.1 -1
v -1.2 0.1 -1.1
v -1.2 0.2 1
v -1.2 0.2 -1
v -1.2 0.3 1
v -1.2 0.3 -1
v -1.2 0.4 -1
v -1.2 0.4 -1.1
v -1.1 0 1.1
v -1.1 0 1
v -1.1 0.5 1.8
v -1.1 0.5 1.1
v -1.1 0.6 1.8
v -1.1 0.6 1
v -0.5 0.2 1.1
v -0.5 0.2 0.3
v -0.5 0.2 0.2
v -0.5 0.4 1.1
v -0.5 0.4 0.3
v -0.5 0.4 0.2
v -0.5 0.6 2.7
v -0.5 0.6 2.1
v -0.5 0.7 2.7
v -0.5 0.7 2.1
v -0.4 0.5 2.8
v -0.4 0.5 2
v -0.4 0.6 2.8
v -0.4 0.6 2
v -0.3 0.1 1
v -0.3 0.1 0.3
v -0.3 0.2 1
v -0.3 0.2 0.3
v -0.3 0.4 1
v -0.3 0.4 0.3
v -0.3 0.5 1
v -0.3 0.5 0.3
v -0.2 0.1 0.3
v -0.2 0.1 0.2
v -0.2 0.2 1
v -0.2 0.2 0.3
v -0.2 0.4 1
v -0.2 0.4 0.3
v -0.2 0.5 0.3
v -0.2 0.5 0.2
v -0.0999999 0 1.1
v -0.0999999 0 1
v -0.0999999 0.5 1.8
v -0.0999999 0.5 1.1
v -0.0999999 0.6 1.8
v -0.0999999 0.6 1
v 2.38419e-007 0 2.9
v 2.38419e-007 0 2.8
v 2.38419e-007 0 1.2
v 2.38419e-007 0 1.1
v 2.38419e-007 0.1 3
v 2.38419e-007 0.1 2.9
v 2.38419e-007 0.1 2.8
v 2.38419e-007 0.1 1.2
v 2.38419e-007 0.1 1.1
v 2.38419e-007 0.4 3
v 2.38419e-007 0.4 2.9
v 2.38419e-007 0.4 2.8
v 2.38419e-007 0.4 1.2
v 2.38419e-007 0.4 1.1
v 2.38419e-007 0.5 2.9
v 2.38419e-007 0.5 2.8
v 2.38419e-007 0.5 1.2
v 2.38419e-007 0.5 1.1
v 0.1 0 2.8
v 0.1 0 1.2
v 0.1 0.1 2.9
v 0.1 0.1 2.8
v 0.1 0.1 1.2
v 0.1 0.1 1.1
v 0.1 0.4 2.9
v 0.1 0.4 2.8
v 0.1 0.4 1.2
v 0.1 0.4 1.1
v 0.1 0.5 2.8
v 0.1 0.5 1.2
v 0.2 0.1 2.8
v 0.2 0.1 1.2
v 0.2 0.4 2.8
v 0.2 0.4 1.2
v -1.8 0.1 3
v -1.8 0.4 3
v 2.38419e-007 0.1 3
v 2.38419e-007 0.4 3
v -1.9 0.1 2.9
v -1.9 0.4 2.9
v -1.8 0 2.9
v -1.8 0.1 2.9
v -1.8 0.4 2.9
v -1.8 0.5 2.9
v 2.38419e-007 0 2.9
v 2.38419e-007 0.1 2.9
v 2.38419e-007 0.4 2.9
v 2.38419e-007 0.5 2.9
v 0.1 0.1 2.9
v 0.1 0.4 2.9
v -2 0.1 2.8
v -2 0.4 2.8
v -1.9 0 2.8
v -1.9 0.1 2.8
v -1.9 0.4 2.8
v -1.9 0.5 2.8
v -1.8 0 2.8
v -1.8 0.1 2.8
v -1.8 0.4 2.8
v -1.8 0.5 2.8
v -1.4 0.5 2.8
v -1.4 0.6 2.8
v -0.4 0.5 2.8
v -0.4 0.6 2.8
v 2.38419e-007 0 2.8
v 2.38419e-007 0.1 2.8
v 2.38419e-007 0.4 2.8
v 2.38419e-007 0.5 2.8
v 0.1 0 2.8
v 0.1 0.1 2.8
v 0.1 0.4 2.8
v 0.1 0.5 2.8
v 0.2 0.1 2.8
v 0.2 0.4 2.8
v -1.3 0.6 2.7
v -1.3 0.7 2.7
v -0.5 0.6 2.7
v -0.5 0.7 2.7
v -1.6 0.5 1.8
v -1.6 0.6 1.8
v -1.1 0.5 1.8
v -1.1 0.6 1.8
v -0.7 0.5 1.8
v -0.7 0.6 1.8
v -0.0999999 0.5 1.8
v -0.0999999 0.6 1.8
v -0.6 0.1 0.3
v -0.6 0.2 0.3
v -0.6 0.4 0.3
v -0.6 0.5 0.3
v -0.5 0.1 0.3
v -0.5 0.2 0.3
v -0.5 0.4 0.3
v -0.5 0.5 0.3
v -0.3 0.1 0.3
v -0.3 0.2 0.3
v -0.3 0.4 0.3
v -0.3 0.5 0.3
v -0.2 0.1 0.3
v -0.2 0.2 0.3
v -0.2 0.4 0.3
v -0.2 0.5 0.3
v -1.5 0.1 -1
v -1.5 0.2 -1
v -1.5 0.3 -1
v -1.5 0.4 -1
v -1.4 0.1 -1
v -1.4 0.2 -1
v -1.4 0.3 -1
v -1.4 0.4 -1
v -1.3 0.1 -1
v -1.3 0.2 -1
v -1.3 0.3 -1
v -1.3 0.4 -1
v -1.2 0.1 -1
v -1.2 0.2 -1
v -1.2 0.3 -1
v -1.2 0.4 -1
v -1.3 0.6 2.1
v -1.3 0.7 2.1
v -0.5 0.6 2.1
v -0.5 0.7 2.1
v -1.4 0.5 2
v -1.4 0.6 2
v -0.4 0.5 2
v -0.4 0.6 2
v -2 0.1 1.2
v -2 0.4 1.2
v -1.9 0 1.2
v -1.9 0.1 1.2
v -1.9 0.4 1.2
v -1.9 0.5 1.2
v -1.8 0 1.2
v -1.8 0.1 1.2
v -1.8 0.4 1.2
v -1.8 0.5 1.2
v 2.38419e-007 0 1.2
v 2.38419e-007 0.1 1.2
v 2.38419e-007 0.4 1.2
v 2.38419e-007 0.5 1.2
v 0.1 0 1.2
v 0.1 0.1 1.2
v 0.1 0.4 1.2
v 0.1 0.5 1.2
v 0.2 0.1 1.2
v 0.2 0.4 1.2
v -1.9 0.1 1.1
v -1.9 0.4 1.1
v -1.8 0 1.1
v -1.8 0.1 1.1
v -1.8 0.4 1.1
v -1.8 0.5 1.1
v -1.6 0 1.1
v -1.6 0.5 1.1
v -1.1 0 1.1
v -1.1 0.5 1.1
v -0.7 0 1.1
v -0.7 0.5 1.1
v -0.5 0.2 1.1
v -0.5 0.4 1.1
v -0.3 0.2 1.1
v -0.3 0.4 1.1
v -0.0999999 0 1.1
v -0.0999999 0.5 1.1
v 2.38419e-007 0 1.1
v 2.38419e-007 0.1 1.1
v 2.38419e-007 0.4 1.1
v 2.38419e-007 0.5 1.1
v 0.1 0.1 1.1
v 0.1 0.4 1.1
v -1.6 0 1
v -1.6 0.6 1
v -1.5 0.1 1
v -1.5 0.2 1
v -1.5 0.3 1
v -1.5 0.4 1
v -1.4 0.1 1
v -1.4 0.2 1
v -1.4 0.3 1
v -1.4 0.4 1
v -1.3 0.1 1
v -1.3 0.2 1
v -1.3 0.3 1
v -1.3 0.4 1
v -1.2 0.1 1
v -1.2 0.2 1
v -1.2 0.3 1
v -1.2 0.4 1
v -1.1 0 1
v -1.1 0.6 1
v -0.7 0 1
v -0.7 0.6 1
v -0.6 0.1 1
v -0.6 0.2 1
v -0.6 0.4 1
v -0.6 0.5 1
v -0.5 0.1 1
v -0.5 0.2 1
v -0.5 0.4 1
v -0.5 0.5 1
v -0.3 0.1 1
v -0.3 0.2 1
v -0.3 0.4 1
v -0.3 0.5 1
v -0.2 0.1 1
v -0.2 0.2 1
v -0.2 0.4 1
v -0.2 0.5 1
v -0.0999999 0 1
v -0.0999999 0.6 1
v -0.6 0.1 0.2
v -0.6 0.5 0.2
v -0.5 0.2 0.2
v -0.5 0.4 0.2
v -0.3 0.2 0.2
v -0.3 0.4 0.2
v -0.2 0.1 0.2
v -0.2 0.5 0.2
v -1.4 0.2 -0.5
v -1.4 0.3 -0.5
v -1.3 0.2 -0.5
v -1.3 0.3 -0.5
v -1.5 0.1 -1.1
v -1.5 0.4 -1.1
v -1.4 0.2 -1.1
v -1.4 0.3 -1.1
v -1.3 0.2 -1.1
v -1.3 0.3 -1.1
v -1.2 0.1 -1.1
v -1.2 0.4 -1.1
v -1.8 0 2.9
v 2.38419e-007 0 2.9
v -1.9 0 2.8
v -1.8 0 2.8
v 2.38419e-007 0 2.8
v 0.1 0 2.8
v -1.9 0 1.2
v -1.8 0 1.2
v 2.38419e-007 0 1.2
v 0.1 0 1.2
v -1.8 0 1.1
v -1.6 0 1.1
v -1.1 0 1.1
v -0.7 0 1.1
v -0.0999999 0 1.1
v 2.38419e-007 0 1.1
v -1.6 0 1
v -1.1 0 1
v -0.7 0 1
v -0.0999999 0 1
v -1.8 0.1 3
v 2.38419e-007 0.1 3
v -1.9 0.1 2.9
v -1.8 0.1 2.9
v 2.38419e-007 0.1 2.9
v 0.1 0.1 2.9
v -2 0.1 2.8
v -1.9 0.1 2.8
v -1.8 0.1 2.8
v 2.38419e-007 0.1 2.8
v 0.1 0.1 2.8
v 0.2 0.1 2.8
v -2 0.1 1.2
v -1.9 0.1 1.2
v -1.8 0.1 1.2
v 2.38419e-007 0.1 1.2
v 0.1 0.1 1.2
v 0.2 0.1 1.2
v -1.9 0.1 1.1
v -1.8 0.1 1.1
v 2.38419e-007 0.1 1.1
v 0.1 0.1 1.1
v -1.4 0.1 1
v -1.3 0.1 1
v -0.5 0.1 1
v -0.3 0.1 1
v -0.6 0.1 0.3
v -0.5 0.1 0.3
v -0.3 0.1 0.3
v -0.2 0.1 0.3
v -0.6 0.1 0.2
v -0.2 0.1 0.2
v -1.5 0.1 -1
v -1.4 0.1 -1
v -1.3 0.1 -1
v -1.2 0.1 -1
v -1.5 0.1 -1.1
v -1.2 0.1 -1.1
v -1.5 0.2 1
v -1.4 0.2 1
v -1.3 0.2 1
v -1.2 0.2 1
v -0.6 0.2 1
v -0.5 0.2 1
v -0.3 0.2 1
v -0.2 0.2 1
v -0.6 0.2 0.3
v -0.5 0.2 0.3
v -0.3 0.2 0.3
v -0.2 0.2 0.3
v -1.5 0.2 -1
v -1.4 0.2 -1
v -1.3 0.2 -1
v -1.2 0.2 -1
v -1.4 0.3 -0.5
v -1.3 0.3 -0.5
v -1.4 0.3 -1
v -1.3 0.3 -1
v -1.4 0.3 -1.1
v -1.3 0.3 -1.1
v -0.5 0.4 1.1
v -0.3 0.4 1.1
v -0.5 0.4 0.3
v -0.3 0.4 0.3
v -0.5 0.4 0.2
v -0.3 0.4 0.2
v -0.5 0.2 1.1
v -0.3 0.2 1.1
v -0.5 0.2 0.3
v -0.3 0.2 0.3
v -0.5 0.2 0.2
v -0.3 0.2 0.2
v -1.4 0.2 -0.5
v -1.3 0.2 -0.5
v -1.4 0.2 -1
v -1.3 0.2 -1
v -1.4 0.2 -1.1
v -1.3 0.2 -1.1
v -1.5 0.3 1
v -1.4 0.3 1
v -1.3 0.3 1
v -1.2 0.3 1
v -1.5 0.3 -1
v -1.4 0.3 -1
v -1.3 0.3 -1
v -1.2 0.3 -1
v -1.8 0.4 3
v 2.38419e-007 0.4 3
v -1.9 0.4 2.9
v -1.8 0.4 2.9
v 2.38419e-007 0.4 2.9
v 0.1 0.4 2.9
v -2 0.4 2.8
v -1.9 0.4 2.8
v -1.8 0.4 2.8
v 2.38419e-007 0.4 2.8
v 0.1 0.4 2.8
v 0.2 0.4 2.8
v -2 0.4 1.2
v -1.9 0.4 1.2
v -1.8 0.4 1.2
v 2.38419e-007 0.4 1.2
v 0.1 0.4 1.2
v 0.2 0.4 1.2
v -1.9 0.4 1.1
v -1.8 0.4 1.1
v 2.38419e-007 0.4 1.1
v 0.1 0.4 1.1
v -1.4 0.4 1
v -1.3 0.4 1
v -0.6 0.4 1
v -0.5 0.4 1
v -0.3 0.4 1
v -0.2 0.4 1
v -0.6 0.4 0.3
v -0.5 0.4 0.3
v -0.3 0.4 0.3
v -0.2 0.4 0.3
v -1.5 0.4 -1
v -1.4 0.4 -1
v -1.3 0.4 -1
v -1.2 0.4 -1
v -1.5 0.4 -1.1
v -1.2 0.4 -1.1
v -1.8 0.5 2.9
v 2.38419e-007 0.5 2.9
v -1.9 0.5 2.8
v -1.8 0.5 2.8
v -1.4 0.5 2.8
v -0.4 0.5 2.8
v 2.38419e-007 0.5 2.8
v 0.1 0.5 2.8
v -1.4 0.5 2
v -0.4 0.5 2
v -1.6 0.5 1.8
v -1.1 0.5 1.8
v -0.7 0.5 1.8
v -0.0999999 0.5 1.8
v -1.9 0.5 1.2
v -1.8 0.5 1.2
v 2.38419e-007 0.5 1.2
v 0.1 0.5 1.2
v -1.8 0.5 1.1
v -1.6 0.5 1.1
v -1.1 0.5 1.1
v -0.7 0.5 1.1
v -0.0999999 0.5 1.1
v 2.38419e-007 0.5 1.1
v -0.5 0.5 1
v -0.3 0.5 1
v -0.6 0.5 0.3
v -0.5 0.5 0.3
v -0.3 0.5 0.3
v -0.2 0.5 0.3
v -0.6 0.5 0.2
v -0.2 0.5 0.2
v -1.4 0.6 2.8
v -0.4 0.6 2.8
v -1.3 0.6 2.7
v -0.5 0.6 2.7
v -1.3 0.6 2.1
v -0.5 0.6 2.1
v -1.4 0.6 2
v -0.4 0.6 2
v -1.6 0.6 1.8
v -1.1 0.6 1.8
v -0.7 0.6 1.8
v -0.0999999 0.6 1.8
v -1.6 0.6 1
v -1.1 0.6 1
v -0.7 0.6 1
v -0.0999999 0.6 1
v -1.3 0.7 2.7
v -0.5 0.7 2.7
v -1.3 0.7 2.1
v -0.5 0.7 2.1

# faces
f 3/3/1 2/3/1 1/3/1
f 4/3/1 2/3/1 3/3/1
f 8/4/1 6/4/1 5/4/1
f 9/4/1 6/4/1 8/4/1
f 11/4/1 8/4/1 7/4/1
f 12/4/1 8/4/1 11/4/1
f 13/4/1 10/4/1 9/4/1
f 14/4/1 10/4/1 13/4/1
f 15/4/1 13/4/1 12/4/1
f 16/4/1 13/4/1 15/4/1
f 22/4/1 18/4/1 17/4/1
f 23/4/1 18/4/1 22/4/1
f 24/4/1 20/4/1 19/4/1
f 25/4/1 20/4/1 24/4/1
f 26/3/1 22/3/1 21/3/1
f 27/3/1 22/3/1 26/3/1
f 31/4/1 28/4/1 27/4/1
f 32/4/1 28/4/1 31/4/1
f 33/4/1 30/4/1 29/4/1
f 34/4/1 30/4/1 33/4/1
f 38/3/1 36/3/1 35/3/1
f 39/3/1 38/3/1 37/3/1
f 40/3/1 36/3/1 38/3/1
f 40/3/1 38/3/1 39/3/1
f 44/4/1 42/4/1 41/4/1
f 45/2/1 44/2/1 43/2/1
f 46/4/1 42/4/1 44/4/1
f 46/2/1 44/2/1 45/2/1
f 47/4/1 42/4/1 46/4/1
f 48/4/1 42/4/1 47/4/1
f 51/2/1 50/2/1 49/2/1
f 52/2/1 50/2/1 51/2/1
f 55/2/1 54/2/1 53/2/1
f 56/2/1 54/2/1 55/2/1
f 59/1/1 58/1/1 57/1/1
f 60/1/1 58/1/1 59/1/1
f 64/2/1 62/2/1 61/2/1
f 65/4/1 63/4/1 62/4/1
f 65/2/1 62/2/1 64/2/1
f 66/4/1 63/4/1 65/4/1
f 69/3/1 68/3/1 67/3/1
f 70/3/1 68/3/1 69/3/1
f 74/3/1 72/3/1 71/3/1
f 75/3/1 74/3/1 73/3/1
f 76/3/1 72/3/1 74/3/1
f 76/3/1 74/3/1 75/3/1
f 80/4/1 78/4/1 77/4/1
f 81/2/1 80/2/1 79/2/1
f 82/4/1 78/4/1 80/4/1
f 82/2/1 80/2/1 81/2/1
f 83/4/1 78/4/1 82/4/1
f 84/4/1 78/4/1 83/4/1
f 87/2/1 86/2/1 85/2/1
f 88/2/1 86/2/1 87/2/1
f 91/2/1 90/2/1 89/2/1
f 92/2/1 90/2/1 91/2/1
f 96/2/1 94/2/1 93/2/1
f 97/4/1 95/4/1 94/4/1
f 97/2/1 94/2/1 96/2/1
f 98/4/1 95/4/1 97/4/1
f 99/2/2 100/2/2 102/2/2
f 100/4/2 101/4/2 103/4/2
f 102/2/2 100/2/2 103/2/2
f 103/4/2 101/4/2 104/4/2
f 105/2/2 106/2/2 107/2/2
f 107/2/2 106/2/2 108/2/2
f 109/2/2 110/2/2 111/2/2
f 111/2/2 110/2/2 112/2/2
f 113/4/2 114/4/2 116/4/2
f 115/2/2 116/2/2 117/2/2
f 116/4/2 114/4/2 118/4/2
f 117/2/2 116/2/2 118/2/2
f 118/4/2 114/4/2 119/4/2
f 119/4/2 114/4/2 120/4/2
f 121/3/2 122/3/2 124/3/2
f 123/3/2 124/3/2 125/3/2
f 124/3/2 122/3/2 126/3/2
f 125/3/2 124/3/2 126/3/2
f 127/2/2 128/2/2 130/2/2
f 128/4/2 129/4/2 131/4/2
f 130/2/2 128/2/2 131/2/2
f 131/4/2 129/4/2 132/4/2
f 133/3/2 134/3/2 135/3/2
f 135/3/2 134/3/2 136/3/2
f 137/1/2 138/1/2 139/1/2
f 139/1/2 138/1/2 140/1/2
f 141/2/2 142/2/2 143/2/2
f 143/2/2 142/2/2 144/2/2
f 145/2/2 146/2/2 147/2/2
f 147/2/2 146/2/2 148/2/2
f 149/4/2 150/4/2 152/4/2
f 151/2/2 152/2/2 153/2/2
f 152/4/2 150/4/2 154/4/2
f 153/2/2 152/2/2 154/2/2
f 154/4/2 150/4/2 155/4/2
f 155/4/2 150/4/2 156/4/2
f 157/3/2 158/3/2 160/3/2
f 159/3/2 160/3/2 161/3/2
f 160/3/2 158/3/2 162/3/2
f 161/3/2 160/3/2 162/3/2
f 163/4/2 164/4/2 168/4/2
f 168/4/2 164/4/2 169/4/2
f 165/4/2 166/4/2 170/4/2
f 170/4/2 166/4/2 171/4/2
f 167/3/2 168/3/2 172/3/2
f 172/3/2 168/3/2 173/3/2
f 173/4/2 174/4/2 177/4/2
f 177/4/2 174/4/2 178/4/2
f 175/4/2 176/4/2 179/4/2
f 179/4/2 176/4/2 180/4/2
f 181/4/2 182/4/2 184/4/2
f 184/4/2 182/4/2 185/4/2
f 183/4/2 184/4/2 187/4/2
f 187/4/2 184/4/2 188/4/2
f 185/4/2 186/4/2 189/4/2
f 189/4/2 186/4/2 190/4/2
f 188/4/2 189/4/2 191/4/2
f 191/4/2 189/4/2 192/4/2
f 193/3/2 194/3/2 195/3/2
f 195/3/2 194/3/2 196/3/2
f 199/3/3 198/3/3 197/3/3
f 200/3/3 198/3/3 199/3/3
f 204/4/3 202/4/3 201/4/3
f 205/4/3 202/4/3 204/4/3
f 207/4/3 204/4/3 203/4/3
f 208/4/3 204/4/3 207/4/3
f 209/4/3 206/4/3 205/4/3
f 210/4/3 206/4/3 209/4/3
f 211/4/3 209/4/3 208/4/3
f 212/4/3 209/4/3 211/4/3
f 216/3/3 214/3/3 213/3/3
f 217/3/3 214/3/3 216/3/3
f 219/4/3 216/4/3 215/4/3
f 220/4/3 216/4/3 219/4/3
f 221/4/3 218/4/3 217/4/3
f 222/4/3 218/4/3 221/4/3
f 225/1/3 224/1/3 223/1/3
f 226/1/3 224/1/3 225/1/3
f 231/4/3 228/4/3 227/4/3
f 232/4/3 228/4/3 231/4/3
f 233/4/3 230/4/3 229/4/3
f 234/4/3 230/4/3 233/4/3
f 235/3/3 233/3/3 232/3/3
f 236/3/3 233/3/3 235/3/3
f 239/3/3 238/3/3 237/3/3
f 240/3/3 238/3/3 239/3/3
f 243/3/3 242/3/3 241/3/3
f 244/3/3 242/3/3 243/3/3
f 247/3/3 246/3/3 245/3/3
f 248/3/3 246/3/3 247/3/3
f 253/4/3 250/4/3 249/4/3
f 254/4/3 250/4/3 253/4/3
f 255/4/3 252/4/3 251/4/3
f 256/4/3 252/4/3 255/4/3
f 261/4/3 258/4/3 257/4/3
f 262/4/3 258/4/3 261/4/3
f 263/4/3 260/4/3 259/4/3
f 264/4/3 260/4/3 263/4/3
f 269/4/3 266/4/3 265/4/3
f 270/4/3 266/4/3 269/4/3
f 271/4/3 268/4/3 267/4/3
f 272/4/3 268/4/3 271/4/3
f 277/4/3 274/4/3 273/4/3
f 278/4/3 274/4/3 277/4/3
f 279/4/3 276/4/3 275/4/3
f 280/4/3 276/4/3 279/4/3
f 281/3/4 282/3/4 283/3/4
f 283/3/4 282/3/4 284/3/4
f 285/1/4 286/1/4 287/1/4
f 287/1/4 286/1/4 288/1/4
f 289/3/4 290/3/4 292/3/4
f 292/3/4 290/3/4 293/3/4
f 291/4/4 292/4/4 295/4/4
f 295/4/4 292/4/4 296/4/4
f 293/4/4 294/4/4 297/4/4
f 297/4/4 294/4/4 298/4/4
f 299/4/4 300/4/4 303/4/4
f 303/4/4 300/4/4 304/4/4
f 301/4/4 302/4/4 305/4/4
f 305/4/4 302/4/4 306/4/4
f 304/3/4 305/3/4 307/3/4
f 307/3/4 305/3/4 308/3/4
f 309/4/4 310/4/4 312/4/4
f 312/4/4 310/4/4 313/4/4
f 311/4/4 312/4/4 315/4/4
f 313/4/4 314/4/4 315/4/4
f 312/4/4 313/4/4 315/4/4
f 315/4/4 314/4/4 316/4/4
f 317/4/4 318/4/4 319/4/4
f 319/4/4 318/4/4 320/4/4
f 321/4/4 322/4/4 323/4/4
f 323/4/4 322/4/4 324/4/4
f 325/4/4 326/4/4 327/4/4
f 327/4/4 326/4/4 328/4/4
f 328/4/4 326/4/4 329/4/4
f 329/4/4 326/4/4 330/4/4
f 328/4/4 329/4/4 331/4/4
f 331/4/4 329/4/4 332/4/4
f 333/3/4 334/3/4 335/3/4
f 335/3/4 334/3/4 336/3/4
f 336/3/4 334/3/4 337/3/4
f 337/3/4 334/3/4 338/3/4
f 333/3/4 335/3/4 339/3/4
f 335/4/4 336/4/4 339/4/4
f 339/4/4 336/4/4 340/4/4
f 337/4/4 338/4/4 341/4/4
f 338/3/4 334/3/4 342/3/4
f 341/4/4 338/4/4 342/4/4
f 333/3/4 339/3/4 343/3/4
f 342/3/4 334/3/4 346/3/4
f 343/4/4 344/4/4 347/4/4
f 333/3/4 343/3/4 347/3/4
f 347/4/4 344/4/4 348/4/4
f 345/4/4 346/4/4 349/4/4
f 346/3/4 334/3/4 350/3/4
f 349/4/4 346/4/4 350/4/4
f 347/3/4 348/3/4 351/3/4
f 348/3/4 349/3/4 351/3/4
f 349/3/4 350/3/4 351/3/4
f 333/3/4 347/3/4 351/3/4
f 350/3/4 334/3/4 352/3/4
f 351/3/4 350/3/4 352/3/4
f 353/3/4 354/3/4 355/3/4
f 355/3/4 354/3/4 356/3/4
f 356/3/4 354/3/4 357/3/4
f 357/3/4 354/3/4 358/3/4
f 353/3/4 355/3/4 359/3/4
f 355/4/4 356/4/4 359/4/4
f 359/4/4 356/4/4 360/4/4
f 357/4/4 358/4/4 361/4/4
f 358/3/4 354/3/4 362/3/4
f 361/4/4 358/4/4 362/4/4
f 353/3/4 359/3/4 363/3/4
f 362/3/4 354/3/4 366/3/4
f 363/4/4 364/4/4 367/4/4
f 353/3/4 363/3/4 367/3/4
f 367/4/4 364/4/4 368/4/4
f 365/4/4 366/4/4 369/4/4
f 366/3/4 354/3/4 370/3/4
f 369/4/4 366/4/4 370/4/4
f 367/3/4 368/3/4 371/3/4
f 368/3/4 369/3/4 371/3/4
f 369/3/4 370/3/4 371/3/4
f 353/3/4 367/3/4 371/3/4
f 370/3/4 354/3/4 372/3/4
f 371/3/4 370/3/4 372/3/4
f 373/4/4 374/4/4 375/4/4
f 375/4/4 374/4/4 376/4/4
f 373/4/4 375/4/4 377/4/4
f 376/4/4 374/4/4 378/4/4
f 373/4/4 377/4/4 379/4/4
f 377/4/4 378/4/4 379/4/4
f 378/4/4 374/4/4 380/4/4
f 379/4/4 378/4/4 380/4/4
f 381/4/4 382/4/4 383/4/4
f 383/4/4 382/4/4 384/4/4
f 385/4/4 386/4/4 387/4/4
f 387/4/4 386/4/4 388/4/4
f 385/4/4 387/4/4 389/4/4
f 388/4/4 386/4/4 390/4/4
f 385/4/4 389/4/4 391/4/4
f 389/4/4 390/4/4 391/4/4
f 390/4/4 386/4/4 392/4/4
f 391/4/4 390/4/4 392/4/4
f 396/4/5 394/4/5 393/4/5
f 397/4/5 394/4/5 396/4/5
f 399/4/5 396/4/5 395/4/5
f 399/4/5 398/4/5 397/4/5
f 399/4/5 397/4/5 396/4/5
f 400/4/5 398/4/5 399/4/5
f 401/4/5 398/4/5 400/4/5
f 402/4/5 398/4/5 401/4/5
f 403/4/5 401/4/5 400/4/5
f 404/4/5 401/4/5 403/4/5
f 405/4/5 401/4/5 404/4/5
f 406/4/5 401/4/5 405/4/5
f 407/4/5 401/4/5 406/4/5
f 408/4/5 401/4/5 407/4/5
f 409/3/5 405/3/5 404/3/5
f 410/3/5 405/3/5 409/3/5
f 411/3/5 407/3/5 406/3/5
f 412/3/5 407/3/5 411/3/5
f 416/3/5 414/3/5 413/3/5
f 417/3/5 414/3/5 416/3/5
f 420/4/5 416/4/5 415/4/5
f 421/4/5 416/4/5 420/4/5
f 422/4/5 418/4/5 417/4/5
f 423/4/5 418/4/5 422/4/5
f 425/3/5 420/3/5 419/3/5
f 426/3/5 420/3/5 425/3/5
f 429/3/5 424/3/5 423/3/5
f 430/3/5 424/3/5 429/3/5
f 431/4/5 427/4/5 426/4/5
f 432/4/5 427/4/5 431/4/5
f 433/4/5 429/4/5 428/4/5
f 434/4/5 429/4/5 433/4/5
f 440/2/5 438/2/5 437/2/5
f 441/2/5 438/2/5 440/2/5
f 443/4/5 440/4/5 439/4/5
f 443/4/5 442/4/5 441/4/5
f 443/4/5 441/4/5 440/4/5
f 444/4/5 442/4/5 443/4/5
f 446/2/5 436/2/5 435/2/5
f 447/2/5 436/2/5 446/2/5
f 449/4/5 446/4/5 445/4/5
f 449/4/5 448/4/5 447/4/5
f 449/4/5 447/4/5 446/4/5
f 450/4/5 448/4/5 449/4/5
f 459/2/5 456/2/5 455/2/5
f 460/2/5 456/2/5 459/2/5
f 461/2/5 458/2/5 457/2/5
f 462/2/5 458/2/5 461/2/5
f 463/2/5 452/2/5 451/2/5
f 464/2/5 452/2/5 463/2/5
f 465/2/5 454/2/5 453/2/5
f 466/2/5 454/2/5 465/2/5
f 469/2/5 468/2/5 467/2/5
f 470/2/5 468/2/5 469/2/5
f 471/4/5 470/4/5 469/4/5
f 472/4/5 470/4/5 471/4/5
f 475/2/5 474/2/5 473/2/5
f 476/2/5 474/2/5 475/2/5
f 477/4/5 476/4/5 475/4/5
f 478/4/5 476/4/5 477/4/5
f 479/2/6 480/2/6 481/2/6
f 481/2/6 480/2/6 482/2/6
f 481/4/6 482/4/6 483/4/6
f 483/4/6 482/4/6 484/4/6
f 485/2/6 486/2/6 487/2/6
f 487/2/6 486/2/6 488/2/6
f 487/4/6 488/4/6 489/4/6
f 489/4/6 488/4/6 490/4/6
f 491/2/6 492/2/6 495/2/6
f 495/2/6 492/2/6 496/2/6
f 493/2/6 494/2/6 497/2/6
f 497/2/6 494/2/6 498/2/6
f 499/3/6 500/3/6 502/3/6
f 502/3/6 500/3/6 503/3/6
f 501/4/6 502/4/6 506/4/6
f 506/4/6 502/4/6 507/4/6
f 503/4/6 504/4/6 508/4/6
f 508/4/6 504/4/6 509/4/6
f 505/3/6 506/3/6 511/3/6
f 511/3/6 506/3/6 512/3/6
f 509/3/6 510/3/6 515/3/6
f 515/3/6 510/3/6 516/3/6
f 512/4/6 513/4/6 517/4/6
f 517/4/6 513/4/6 518/4/6
f 514/4/6 515/4/6 519/4/6
f 519/4/6 515/4/6 520/4/6
f 523/2/6 524/2/6 527/2/6
f 527/2/6 524/2/6 528/2/6
f 525/2/6 526/2/6 529/2/6
f 529/2/6 526/2/6 530/2/6
f 521/2/6 522/2/6 532/2/6
f 532/2/6 522/2/6 533/2/6
f 531/4/6 532/4/6 535/4/6
f 533/4/6 534/4/6 535/4/6
f 532/4/6 533/4/6 535/4/6
f 535/4/6 534/4/6 536/4/6
f 537/4/6 538/4/6 540/4/6
f 540/4/6 538/4/6 541/4/6
f 541/4/6 538/4/6 542/4/6
f 542/4/6 538/4/6 543/4/6
f 539/4/6 540/4/6 545/4/6
f 540/4/6 541/4/6 545/4/6
f 543/4/6 544/4/6 546/4/6
f 542/4/6 543/4/6 546/4/6
f 539/4/6 545/4/6 547/4/6
f 545/4/6 546/4/6 547/4/6
f 547/4/6 546/4/6 548/4/6
f 548/4/6 546/4/6 549/4/6
f 546/4/6 544/4/6 550/4/6
f 549/4/6 546/4/6 550/4/6
f 539/4/6 547/4/6 551/4/6
f 551/4/6 547/4/6 552/4/6
f 550/4/6 544/4/6 553/4/6
f 553/4/6 544/4/6 554/4/6
f 552/4/6 547/4/6 555/4/6
f 555/4/6 547/4/6 556/4/6
f 548/4/6 549/4/6 557/4/6
f 557/4/6 549/4/6 558/4/6
f 550/4/6 553/4/6 559/4/6
f 559/4/6 553/4/6 560/4/6
f 561/2/6 562/2/6 564/2/6
f 564/2/6 562/2/6 565/2/6
f 563/4/6 564/4/6 567/4/6
f 565/4/6 566/4/6 567/4/6
f 564/4/6 565/4/6 567/4/6
f 567/4/6 566/4/6 568/4/6
f 569/1/6 570/1/6 571/1/6
f 571/1/6 570/1/6 572/1/6
f 569/1/6 571/1/6 573/1/6
f 572/1/6 570/1/6 574/1/6
f 569/1/6 573/1/6 575/1/6
f 573/1/6 574/1/6 575/1/6
f 574/1/6 570/1/6 576/1/6
f 575/1/6 574/1/6 576/1/6
f 577/3/6 578/3/6 581/3/6
f 581/3/6 578/3/6 582/3/6
f 579/3/6 580/3/6 583/3/6
f 583/3/6 580/3/6 584/3/6
f 585/3/6 586/3/6 587/3/6
f 587/3/6 586/3/6 588/3/6
